<svg width="18" height="18" viewBox="0 0 18 18" fill="none" xmlns="http://www.w3.org/2000/svg">
<path d="M8.76136 4.66967L3.00024 10.7715V17.3571C3.00024 17.5276 3.05291 17.6911 3.14667 17.8117C3.24043 17.9323 3.3676 18 3.5002 18L7.0018 17.9883C7.13397 17.9875 7.26049 17.9194 7.35371 17.7989C7.44694 17.6784 7.49927 17.5154 7.49926 17.3454V13.4995C7.49926 13.329 7.55194 13.1655 7.6457 13.0449C7.73946 12.9243 7.86663 12.8566 7.99923 12.8566H9.99907C10.1317 12.8566 10.2588 12.9243 10.3526 13.0449C10.4464 13.1655 10.499 13.329 10.499 13.4995V17.3426C10.4988 17.4272 10.5116 17.511 10.5366 17.5893C10.5617 17.6675 10.5985 17.7386 10.6449 17.7985C10.6914 17.8584 10.7465 17.906 10.8073 17.9384C10.8681 17.9708 10.9332 17.9875 10.999 17.9875L14.4993 18C14.6319 18 14.7591 17.9323 14.8529 17.8117C14.9466 17.6911 14.9993 17.5276 14.9993 17.3571V10.767L9.23944 4.66967C9.17173 4.59948 9.08737 4.56121 9.0004 4.56121C8.91343 4.56121 8.82907 4.59948 8.76136 4.66967ZM17.8616 8.81697L15.2493 6.04795V0.482197C15.2493 0.35431 15.2098 0.231662 15.1395 0.141232C15.0691 0.0508028 14.9738 0 14.8743 0H13.1245C13.025 0 12.9296 0.0508028 12.8593 0.141232C12.789 0.231662 12.7495 0.35431 12.7495 0.482197V3.39989L9.95189 0.440004C9.68341 0.155902 9.34653 0.000567925 8.99884 0.000567925C8.65115 0.000567925 8.31426 0.155902 8.04578 0.440004L0.136083 8.81697C0.0981131 8.85732 0.0666992 8.90691 0.043636 8.96288C0.0205728 9.01886 0.00631225 9.08013 0.00166929 9.14319C-0.00297366 9.20626 0.00209192 9.26988 0.0165766 9.33043C0.0310613 9.39097 0.0546812 9.44726 0.0860867 9.49606L0.8829 10.7417C0.91422 10.7907 0.952744 10.8313 0.996266 10.8611C1.03979 10.8909 1.08745 10.9093 1.13653 10.9154C1.18561 10.9215 1.23515 10.9151 1.28229 10.8965C1.32944 10.878 1.37328 10.8476 1.4113 10.8072L8.76136 3.02217C8.82907 2.95198 8.91343 2.9137 9.0004 2.9137C9.08737 2.9137 9.17173 2.95198 9.23944 3.02217L16.5898 10.8072C16.6278 10.8476 16.6715 10.878 16.7186 10.8966C16.7657 10.9152 16.8152 10.9218 16.8642 10.9158C16.9133 10.9098 16.9609 10.8915 17.0044 10.8618C17.048 10.8322 17.0865 10.7918 17.1179 10.7429L17.9147 9.49726C17.9461 9.44818 17.9696 9.39161 17.9839 9.33079C17.9982 9.26998 18.0031 9.20613 17.9981 9.14291C17.9932 9.0797 17.9786 9.01836 17.9552 8.96242C17.9317 8.90648 17.8999 8.85705 17.8616 8.81697Z" fill="black"/>
</svg>
